<svg width="40" height="40" viewBox="0 0 40 40" fill="none" xmlns="http://www.w3.org/2000/svg">
<path d="M36.25 5H3.75C1.67969 5 0 6.67969 0 8.75V31.25C0 33.3203 1.67969 35 3.75 35H36.25C38.3203 35 40 33.3203 40 31.25V8.75C40 6.67969 38.3203 5 36.25 5ZM3.75 7.5H36.25C36.9375 7.5 37.5 8.0625 37.5 8.75V11.9844C35.7891 13.4297 33.3437 15.4219 25.7344 21.4609C24.4141 22.5078 21.8125 25.0313 20 25C18.1875 25.0313 15.5781 22.5078 14.2656 21.4609C6.65625 15.4219 4.21094 13.4297 2.5 11.9844V8.75C2.5 8.0625 3.0625 7.5 3.75 7.5ZM36.25 32.5H3.75C3.0625 32.5 2.5 31.9375 2.5 31.25V15.2344C4.28125 16.6953 7.09375 18.9531 12.7109 23.4141C14.3125 24.6953 17.1406 27.5156 20 27.5C22.8438 27.5234 25.6484 24.7266 27.2891 23.4141C32.9062 18.9531 35.7188 16.6953 37.5 15.2344V31.25C37.5 31.9375 36.9375 32.5 36.25 32.5Z" fill="#00BB98"/>
</svg>
