<svg width="42" height="48" viewBox="0 0 42 48" fill="none" xmlns="http://www.w3.org/2000/svg">
<path d="M18.0658 33.0521C18.4415 33.3524 18.8921 33.5782 19.4176 33.7281L10.7041 47.6243C10.5538 47.8496 10.3285 48 10.1032 48H10.0282C9.728 48 9.50218 47.7747 9.42725 47.4739L7.32403 41.3142L0.864146 42.0656C0.563914 42.0656 0.26316 41.9907 0.112783 41.6899C-0.0375943 41.3897 -0.0375943 41.1639 0.112783 40.8636L8.60091 27.4194C8.82621 27.4943 9.05151 27.6447 9.12696 27.6447C9.20189 27.7951 9.42719 28.2457 9.50264 28.5459C9.50264 28.5459 9.50265 28.6209 9.57757 28.6209L2.14106 40.4142L7.62431 39.7383H7.69924C7.99947 39.7383 8.30022 39.9636 8.37515 40.2643L10.178 45.5222L18.0658 33.0521ZM41.2012 41.0142L32.6381 27.4184C32.4128 27.4933 32.112 27.6437 32.0371 27.7186C31.9622 27.7935 31.8118 28.3196 31.6614 28.5449C31.6614 28.5449 31.6614 28.6198 31.5865 28.6198L39.023 40.4131L33.5398 39.7372C33.1641 39.6623 32.8639 39.8876 32.7135 40.2633L30.9106 45.5212L23.1732 33.052C22.7975 33.3522 22.3469 33.5781 21.8214 33.7279L30.5349 47.6242C30.6853 47.8495 30.9106 47.9999 31.1359 47.9999H31.2108C31.511 47.9999 31.7369 47.7745 31.8118 47.4738L33.915 41.3141L40.3749 42.0655C40.6751 42.0655 40.9759 41.9905 41.1262 41.6898C41.351 41.5394 41.3511 41.2395 41.2012 41.0142ZM23.1736 31.2491C22.4223 31.8501 21.6715 32.4511 20.6199 32.4511C19.5682 32.4511 18.817 31.7752 18.0661 31.2491C17.6155 30.8734 17.1649 30.5732 16.7892 30.4228C16.3386 30.3479 15.8125 30.4228 15.2115 30.4977C14.3103 30.6481 13.3336 30.798 12.5074 30.2724C11.6811 29.7464 11.3054 28.8451 10.9297 28.0189C10.7044 27.4928 10.4791 26.9673 10.1783 26.6671C9.8781 26.3668 9.35204 26.141 8.82653 25.9157C8.00024 25.6155 7.02364 25.1643 6.57295 24.338C6.12226 23.5117 6.19727 22.4601 6.34764 21.6339C6.42257 21.0329 6.49802 20.4319 6.42257 20.0562C6.34764 19.6805 5.97196 19.2299 5.59628 18.7793C4.99529 18.0279 4.39432 17.2771 4.39432 16.2255C4.39432 15.1739 5.07023 14.4226 5.59628 13.6718C5.97196 13.2212 6.27219 12.7705 6.42257 12.3949C6.49749 11.9443 6.42257 11.4182 6.34764 10.8172C6.19727 9.91598 6.04741 8.93932 6.57295 8.11306C7.099 7.28677 8.00026 6.9111 8.82653 6.53538C9.35259 6.31007 9.87811 6.08477 10.1783 5.78401C10.4786 5.48378 10.7044 4.95772 10.9297 4.43221C11.2299 3.60592 11.6811 2.62932 12.5074 2.17863C13.3337 1.72802 14.3853 1.80295 15.2115 1.95332C15.8125 2.02825 16.4135 2.1037 16.7892 2.02825C17.1649 1.95332 17.6155 1.57764 18.0661 1.20196C18.8174 0.600973 19.5682 0 20.6199 0C21.6715 0 22.4227 0.675914 23.1736 1.20196C23.6242 1.57764 24.0748 1.87787 24.4505 2.02825C24.9011 2.10318 25.4272 2.02825 26.0282 1.95332C26.9294 1.80295 27.9061 1.65309 28.7323 2.17863C29.5586 2.70469 29.9343 3.60595 30.31 4.43221C30.5353 4.95827 30.7606 5.48379 31.0614 5.78401C31.3616 6.08424 31.8877 6.31007 32.4132 6.53538C33.2395 6.83561 34.2161 7.28674 34.6668 8.11306C35.1174 8.93935 35.0424 9.99093 34.8921 10.8172C34.8171 11.4182 34.7417 12.0192 34.8171 12.3949C34.8921 12.7706 35.2677 13.2212 35.6434 13.6718C36.2444 14.4231 36.8454 15.1739 36.8454 16.2255C36.8454 17.2022 36.1695 18.0284 35.6434 18.7793C35.2677 19.2299 34.9675 19.6805 34.8171 20.0562C34.7422 20.5068 34.8171 21.0329 34.8921 21.6339C35.0424 22.5351 35.1923 23.5118 34.6668 24.338C34.1407 25.1643 33.2394 25.54 32.4132 25.9157C31.8871 26.141 31.3616 26.3663 31.0614 26.6671C30.7611 26.9673 30.5353 27.4934 30.31 28.0189C30.0098 28.8452 29.5587 29.8218 28.7323 30.2724C27.906 30.7231 26.8545 30.6481 26.0282 30.4977C25.4272 30.4228 24.8262 30.3474 24.4505 30.4228C24.0754 30.4977 23.6242 30.8734 23.1736 31.2491ZM22.1975 30.0472C22.7236 29.5965 23.324 29.1459 24.0004 28.9956C24.6763 28.7703 25.4277 28.9206 26.1785 28.9956C26.8544 29.0705 27.5303 29.2209 27.906 28.9956C28.2816 28.7703 28.5819 28.0944 28.8072 27.4934C29.1074 26.8175 29.3332 26.1416 29.8588 25.6155C30.3848 25.0895 31.0607 24.7892 31.7366 24.5639C32.4125 24.3386 33.0135 24.0379 33.2388 23.6627C33.4641 23.2871 33.3892 22.6112 33.2388 21.9352C33.1639 21.1839 33.0135 20.4331 33.2388 19.7572C33.3892 19.0812 33.9147 18.4803 34.2904 17.9543C34.741 17.4282 35.1916 16.8278 35.1916 16.3766C35.1916 15.926 34.741 15.325 34.2904 14.7989C33.8398 14.2728 33.3892 13.6724 33.2388 12.996C33.0135 12.3201 33.1639 11.5687 33.2388 10.8179C33.3137 10.142 33.4641 9.46615 33.2388 9.09044C33.0135 8.71476 32.3376 8.41452 31.7366 8.18922C31.0607 7.88899 30.3848 7.66316 29.8588 7.13764C29.3327 6.61158 29.0325 5.93568 28.8072 5.25976C28.5819 4.58385 28.2811 3.98288 27.906 3.7576C27.5303 3.5323 26.8544 3.60722 26.1785 3.7576C25.4271 3.83253 24.6763 3.98291 24.0004 3.7576C23.3245 3.60722 22.7235 3.08169 22.1975 2.70602C21.6714 1.8792 21.0705 1.42861 20.6198 1.42861C20.1692 1.42861 19.5682 1.87922 19.0421 2.32983C18.516 2.78043 17.9156 3.23104 17.2392 3.38141C16.5633 3.60671 15.8119 3.45633 15.0612 3.38141C14.3853 3.30648 13.7094 3.1561 13.3337 3.38141C12.958 3.60671 12.6578 4.28263 12.4325 4.88357C12.1322 5.55949 11.9064 6.23537 11.3809 6.76145C10.8548 7.28751 10.1789 7.58774 9.50299 7.81303C8.82708 8.03833 8.2261 8.33909 8.00083 8.71425C7.77552 9.08993 7.85045 9.76583 8.00083 10.4418C8.07575 11.1931 8.22613 11.9439 8.00083 12.6198C7.85045 13.2957 7.32491 13.8967 6.94925 14.4227C6.49864 14.9488 6.04803 15.5492 6.04803 16.0004C6.04803 16.451 6.49864 17.052 6.94925 17.5781C7.39985 18.1041 7.85046 18.7046 8.00083 19.381C8.22613 20.0569 8.07575 20.8083 8.00083 21.559C7.9259 22.2349 7.77552 22.9108 8.00083 23.2865C8.22613 23.6623 8.90205 23.9625 9.50299 24.1878C10.1789 24.488 10.8548 24.7138 11.3809 25.2393C11.9069 25.7654 12.2072 26.4413 12.4325 27.1172C12.6578 27.7931 12.9585 28.3941 13.3337 28.6194C13.7093 28.8447 14.3852 28.7698 15.0612 28.6194C15.5118 28.5445 15.9624 28.469 16.413 28.469C16.7132 28.469 17.014 28.469 17.3142 28.5439C17.9901 28.6943 18.5911 29.2198 19.1171 29.5955C19.6431 30.0461 20.2436 30.4967 20.6948 30.4967C21.1459 30.4978 21.6714 30.4978 22.1975 30.0472ZM20.6198 26.0661C15.1366 26.0661 10.7044 21.6344 10.7044 16.1506C10.7044 10.6674 15.1366 6.3107 20.6198 6.3107C26.1031 6.3107 30.5353 10.7423 30.5353 16.2261C30.5353 21.7094 26.1031 26.0661 20.6198 26.0661ZM29.0326 16.1512C29.0326 11.4942 25.2768 7.73842 20.6198 7.73842C15.9628 7.73842 12.2071 11.4942 12.2071 16.1512C12.2071 20.8082 15.9628 24.5639 20.6198 24.5639C25.2768 24.5639 29.0326 20.8082 29.0326 16.1512ZM26.1031 14.1229C26.178 14.4232 26.1031 14.7239 25.8778 14.8743L23.7745 16.9025L24.3006 19.832C24.3755 20.1322 24.2257 20.433 24.0004 20.5834C23.85 20.6583 23.7001 20.7337 23.5498 20.7337C23.3994 20.7337 23.3245 20.7337 23.1741 20.6588L20.6198 19.3059L17.9905 20.6577C17.7652 20.8081 17.4644 20.7327 17.1642 20.5828C16.9389 20.4324 16.7885 20.1322 16.864 19.8315L17.39 16.902L15.2868 14.8737C15.0615 14.6484 14.9866 14.3477 15.0615 14.1224C15.1364 13.8221 15.3617 13.6718 15.6625 13.5963L18.592 13.1457L19.8689 10.5164C20.0942 9.99036 20.9954 9.99036 21.2207 10.5164L22.4975 13.1457L25.427 13.5963C25.8027 13.6723 26.0281 13.8222 26.1031 14.1229ZM23.7746 14.8738L21.9718 14.6485C21.7464 14.6485 21.5211 14.4232 21.3708 14.2728L20.6199 12.6208L19.7936 14.1979C19.7187 14.4232 19.4934 14.5736 19.1926 14.5736L17.3898 14.7989L18.6666 16.0758C18.817 16.2262 18.8919 16.5264 18.8919 16.7517L18.5917 18.5546L20.1694 17.7283C20.2443 17.6534 20.3947 17.6534 20.5451 17.6534C20.6955 17.6534 20.7704 17.6534 20.9208 17.7283L22.4984 18.5546L22.1982 16.7517C22.1233 16.5264 22.2731 16.2257 22.4235 16.0758L23.7746 14.8738Z" fill="#00BB98"/>
</svg>
