<svg width="37" height="42" viewBox="0 0 37 42" fill="none" xmlns="http://www.w3.org/2000/svg">
<path d="M18.5005 1.83306L35.2332 7.67249V13.7046C35.2332 26.8074 28.6186 34.5568 18.5005 40.0545C8.38296 34.556 1.77385 26.807 1.77385 13.7046V7.67249L18.5005 1.83306ZM18.2108 0.0500273L0.594736 6.19618C0.238481 6.31966 0 6.6576 0 7.03925V13.704C0 27.6198 7.36585 36.2017 18.0849 41.8976C18.344 42.0341 18.6561 42.0341 18.9151 41.8976C29.6322 36.2024 37 27.6198 37 13.704V7.03925C37 6.65642 36.7597 6.31848 36.4035 6.19618L18.792 0.0500273C18.5829 -0.0244141 18.378 -0.00846227 18.2108 0.0500273Z" fill="#00BB98"/>
<path fill-rule="evenodd" clip-rule="evenodd" d="M26.2578 13.8117L28.2021 15.7295C28.3717 15.8949 28.3717 16.1212 28.2021 16.2878C27.6798 16.8071 22.0263 22.5905 18.9248 25.704C18.1134 26.5116 17.2926 27.3163 16.4728 28.1292C16.3015 28.297 16.0524 28.3011 15.8858 28.1339L8.80783 21.0419C8.64059 20.8753 8.64649 20.6295 8.81254 20.4582C9.47675 19.787 10.3601 18.879 10.7858 18.4489C10.9554 18.277 11.1809 18.277 11.357 18.4489L15.5631 22.6744C15.9093 23.0218 16.4728 23.0218 16.8191 22.6744L25.5199 13.9542C25.769 13.7037 26.0871 13.6415 26.2578 13.8117ZM25.7991 11.989C25.2326 12.0481 24.6944 12.2744 24.2694 12.7003L16.1946 20.7826L12.6085 17.1952C11.7682 16.3521 10.3773 16.3521 9.53645 17.1999C9.106 17.6359 8.21213 18.5369 7.55265 19.2092C6.71707 20.0582 6.70765 21.449 7.55265 22.2967L14.6359 29.3947C15.4867 30.2425 16.8729 30.2425 17.719 29.3994C18.534 28.5918 19.3596 27.7818 20.1763 26.9594C23.2931 23.8369 29.1056 17.8899 29.4483 17.5533C30.2975 16.7149 30.2886 15.3029 29.4436 14.4658L27.504 12.548C27.0153 12.0676 26.3651 11.9353 25.7991 11.989Z" fill="#00BB98"/>
</svg>
