<svg width="40" height="40" viewBox="0 0 40 40" fill="none" xmlns="http://www.w3.org/2000/svg">
<path d="M20.0008 23.6167C16.4508 23.6167 13.5508 20.7334 13.5508 17.1667C13.5508 13.6001 16.4508 10.7334 20.0008 10.7334C23.5508 10.7334 26.4508 13.6167 26.4508 17.1834C26.4508 20.7501 23.5508 23.6167 20.0008 23.6167ZM20.0008 13.2334C17.8341 13.2334 16.0508 15.0001 16.0508 17.1834C16.0508 19.3667 17.8174 21.1334 20.0008 21.1334C22.1841 21.1334 23.9508 19.3667 23.9508 17.1834C23.9508 15.0001 22.1674 13.2334 20.0008 13.2334Z" fill="#00BB98"/>
<path d="M20.0008 37.9333C17.5341 37.9333 15.0508 36.9999 13.1174 35.1499C8.20078 30.4166 2.76745 22.8666 4.81745 13.8833C6.66745 5.73325 13.7841 2.08325 20.0008 2.08325C20.0008 2.08325 20.0008 2.08325 20.0174 2.08325C26.2341 2.08325 33.3508 5.73325 35.2008 13.8999C37.2341 22.8833 31.8008 30.4166 26.8841 35.1499C24.9508 36.9999 22.4674 37.9333 20.0008 37.9333ZM20.0008 4.58325C15.1508 4.58325 8.91745 7.16659 7.26745 14.4333C5.46745 22.2833 10.4008 29.0499 14.8674 33.3333C17.7508 36.1166 22.2674 36.1166 25.1508 33.3333C29.6008 29.0499 34.5341 22.2833 32.7674 14.4333C31.1008 7.16659 24.8508 4.58325 20.0008 4.58325Z" fill="#00BB98"/>
</svg>
