<svg width="40" height="40" viewBox="0 0 40 40" fill="none" xmlns="http://www.w3.org/2000/svg">
<path d="M29.084 37.9166C27.2007 37.9166 25.2173 37.4666 23.1673 36.5999C21.1673 35.7499 19.1507 34.5833 17.184 33.1666C15.234 31.7333 13.3507 30.1333 11.5673 28.3833C9.80065 26.5999 8.20065 24.7166 6.78398 22.7833C5.35065 20.7833 4.20065 18.7833 3.38398 16.8499C2.51732 14.7833 2.08398 12.7833 2.08398 10.8999C2.08398 9.59992 2.31732 8.36659 2.76732 7.21659C3.23398 6.03325 3.98398 4.93325 5.00065 3.98325C6.28398 2.71659 7.75065 2.08325 9.31732 2.08325C9.96732 2.08325 10.634 2.23325 11.2007 2.49992C11.8507 2.79992 12.4007 3.24992 12.8007 3.84992L16.6673 9.29992C17.0173 9.78325 17.284 10.2499 17.4673 10.7166C17.684 11.2166 17.8007 11.7166 17.8007 12.1999C17.8007 12.8333 17.6173 13.4499 17.2673 14.0333C17.0173 14.4833 16.634 14.9666 16.1507 15.4499L15.0173 16.6333C15.034 16.6833 15.0507 16.7166 15.0673 16.7499C15.2673 17.0999 15.6673 17.6999 16.434 18.5999C17.2507 19.5333 18.0173 20.3833 18.784 21.1666C19.7673 22.1333 20.584 22.8999 21.3507 23.5333C22.3007 24.3333 22.9173 24.7333 23.284 24.9166L23.2507 24.9999L24.4673 23.7999C24.984 23.2833 25.484 22.8999 25.9673 22.6499C26.884 22.0833 28.0507 21.9833 29.2173 22.4666C29.6507 22.6499 30.1173 22.8999 30.6173 23.2499L36.1507 27.1833C36.7673 27.5999 37.2173 28.1333 37.484 28.7666C37.734 29.3999 37.8507 29.9833 37.8507 30.5666C37.8507 31.3666 37.6673 32.1666 37.3173 32.9166C36.9673 33.6666 36.534 34.3166 35.984 34.9166C35.034 35.9666 34.0007 36.7166 32.8007 37.1999C31.6507 37.6666 30.4007 37.9166 29.084 37.9166ZM9.31732 4.58325C8.40065 4.58325 7.55065 4.98325 6.73398 5.78325C5.96732 6.49992 5.43398 7.28325 5.10065 8.13325C4.75065 8.99992 4.58398 9.91659 4.58398 10.8999C4.58398 12.4499 4.95065 14.1333 5.68398 15.8666C6.43398 17.6333 7.48398 19.4666 8.81732 21.2999C10.1507 23.1333 11.6673 24.9166 13.334 26.5999C15.0007 28.2499 16.8007 29.7833 18.6507 31.1333C20.4507 32.4499 22.3007 33.5166 24.134 34.2833C26.984 35.4999 29.6507 35.7833 31.8507 34.8666C32.7007 34.5166 33.4507 33.9833 34.134 33.2166C34.5173 32.7999 34.8173 32.3499 35.0673 31.8166C35.2673 31.3999 35.3673 30.9666 35.3673 30.5333C35.3673 30.2666 35.3173 29.9999 35.184 29.6999C35.134 29.5999 35.034 29.4166 34.7173 29.1999L29.184 25.2666C28.8507 25.0333 28.5507 24.8666 28.2673 24.7499C27.9007 24.5999 27.7507 24.4499 27.184 24.7999C26.8507 24.9666 26.5507 25.2166 26.2173 25.5499L24.9507 26.7999C24.3007 27.4333 23.3007 27.5833 22.534 27.2999L22.084 27.0999C21.4007 26.7333 20.6007 26.1666 19.7173 25.4166C18.9173 24.7333 18.0507 23.9333 17.0007 22.8999C16.184 22.0666 15.3673 21.1833 14.5173 20.1999C13.734 19.2833 13.1673 18.4999 12.8173 17.8499L12.6173 17.3499C12.5173 16.9666 12.484 16.7499 12.484 16.5166C12.484 15.9166 12.7007 15.3833 13.1173 14.9666L14.3673 13.6666C14.7007 13.3333 14.9507 13.0166 15.1173 12.7333C15.2507 12.5166 15.3007 12.3333 15.3007 12.1666C15.3007 12.0333 15.2507 11.8333 15.1673 11.6333C15.0507 11.3666 14.8673 11.0666 14.634 10.7499L10.7673 5.28325C10.6007 5.04992 10.4007 4.88325 10.1507 4.76659C9.88399 4.64992 9.60065 4.58325 9.31732 4.58325ZM23.2507 25.0166L22.984 26.1499L23.434 24.9833C23.3507 24.9666 23.284 24.9833 23.2507 25.0166Z" fill="#00BB98"/>
<path d="M30.8333 16.2501C30.15 16.2501 29.5833 15.6834 29.5833 15.0001C29.5833 14.4001 28.9833 13.1501 27.9833 12.0834C27 11.0334 25.9167 10.4167 25 10.4167C24.3167 10.4167 23.75 9.85008 23.75 9.16675C23.75 8.48341 24.3167 7.91675 25 7.91675C26.6167 7.91675 28.3167 8.78341 29.8 10.3667C31.1833 11.8501 32.0833 13.6667 32.0833 15.0001C32.0833 15.6834 31.5167 16.2501 30.8333 16.2501Z" fill="#00BB98"/>
<path d="M36.6667 16.2499C35.9833 16.2499 35.4167 15.6833 35.4167 14.9999C35.4167 9.24992 30.75 4.58325 25 4.58325C24.3167 4.58325 23.75 4.01659 23.75 3.33325C23.75 2.64992 24.3167 2.08325 25 2.08325C32.1167 2.08325 37.9167 7.88325 37.9167 14.9999C37.9167 15.6833 37.35 16.2499 36.6667 16.2499Z" fill="#00BB98"/>
</svg>
