<svg width="60" height="46" viewBox="0 0 60 46" fill="none" xmlns="http://www.w3.org/2000/svg">
<path fill-rule="evenodd" clip-rule="evenodd" d="M51.1143 24.867L50.2119 27.9093C50.0256 28.5375 49.7796 29.3673 49.3752 30.1579C48.9622 31.223 48.3639 32.1333 47.8892 32.8555C47.8829 32.865 47.8766 32.8746 47.8704 32.8841C47.5296 33.5186 47.1015 34.0117 46.7666 34.3755C46.6368 34.5165 46.5271 34.6327 46.4309 34.7346C46.2237 34.9541 46.0794 35.1069 45.9323 35.2982L45.9102 35.3269L45.8871 35.3548C45.4487 35.8841 44.9587 36.2913 44.5737 36.5971C44.4512 36.6943 44.3434 36.7786 44.2461 36.8546C44.0055 37.0425 43.8294 37.1801 43.6563 37.3392C43.1597 37.8231 42.6254 38.1537 42.2144 38.3894C42.0239 38.4987 41.8766 38.5798 41.7527 38.6479C41.552 38.7583 41.4132 38.8347 41.2529 38.9418L41.1967 38.9794L41.1381 39.0131C40.9915 39.0974 40.8449 39.1866 40.6808 39.2871C40.6649 39.2969 40.6488 39.3068 40.6324 39.3168C40.4873 39.4058 40.3241 39.5059 40.1611 39.6012C39.8208 39.8003 39.3913 40.0334 38.8982 40.2032L37.5244 40.7706L38.0773 42.9859C38.2998 42.9303 38.5188 42.8763 38.7473 42.82C39.1134 42.7297 39.504 42.6334 39.973 42.5145L40.0364 42.4985L40.1006 42.4866C40.4988 42.4129 40.8832 42.2562 41.4901 42.0089C41.7311 41.9106 42.0072 41.7981 42.3331 41.6708C42.6663 41.524 43.0703 41.3686 43.4126 41.2369C43.5843 41.1709 43.7405 41.1108 43.8645 41.0608C44.333 40.8717 44.7197 40.6886 45.066 40.4571L45.0853 40.4442L45.1048 40.4318C45.4772 40.1952 45.9079 39.9483 46.2918 39.7284C46.4707 39.6258 46.6395 39.5291 46.7874 39.442C47.2999 39.1402 47.7427 38.8544 48.1365 38.5278C48.485 38.2193 48.9022 37.8846 49.269 37.5904C49.4566 37.4399 49.6311 37.3 49.7763 37.1796C50.2825 36.76 50.6876 36.383 51.0093 35.9739L51.0569 35.9133L51.109 35.8566C52.0803 34.8 52.9338 33.8011 53.5774 32.7094L53.6226 32.6328L53.6743 32.5605C54.345 31.624 54.8249 30.6041 55.3958 29.3906C55.4546 29.2655 55.5145 29.1383 55.5756 29.009C56.095 27.7898 56.5199 26.531 56.8717 25.2908C57.5342 22.814 57.8343 20.4488 57.9512 18.409C58.0482 16.344 57.9892 14.6537 57.8741 13.4666L57.8718 13.4432L57.8701 13.4198C57.8505 13.1525 57.8221 12.8857 57.7912 12.6348L57.5678 11.5887C57.1144 9.46519 56.0709 7.51443 54.5587 5.96184C53.0464 4.40929 51.1274 3.31832 49.0238 2.81438C46.9202 2.31045 44.7173 2.41396 42.6698 3.11302C40.6222 3.81209 38.8131 5.07839 37.4522 6.7662C36.0912 8.45406 35.2341 10.4944 34.9808 12.6512C34.7275 14.808 35.0884 16.9926 36.0214 18.9519C36.9544 20.9111 38.4211 22.5647 40.2512 23.722C42.0813 24.8791 44.2001 25.4929 46.3628 25.4927L46.3629 26.8193C46.3629 26.8193 46.3628 26.8194 46.3629 26.8193L46.3628 25.4927C46.8284 25.4927 47.2848 25.426 47.915 25.3339C47.9489 25.3289 47.9834 25.3239 48.0183 25.3188L51.1143 24.867ZM48.3071 27.2978C48.2595 27.3048 48.2119 27.3118 48.1642 27.3188C47.5742 27.4055 46.9801 27.4927 46.3629 27.4927C46.2933 27.4928 46.2238 27.4922 46.1543 27.4911C43.6855 27.453 41.2731 26.7344 39.1823 25.4124C37.0327 24.0531 35.3107 22.1113 34.2157 19.8117C33.1206 17.5122 32.6972 14.9487 32.9944 12.4179C33.2917 9.88711 34.2974 7.4924 35.8952 5.51079C37.4931 3.52919 39.6178 2.04166 42.0236 1.22029C44.4293 0.39892 47.0178 0.27727 49.4897 0.869414C51.9615 1.46155 54.2157 2.7433 55.9914 4.56636C57.6601 6.27956 58.8421 8.40502 59.42 10.7229C59.4566 10.8695 59.4907 11.0168 59.5224 11.1649C59.5228 11.167 59.5233 11.169 59.5237 11.1711L59.6015 11.1531L59.6763 11.657C59.6954 11.7881 59.7169 11.9378 59.7388 12.1008C59.7809 12.4134 59.8244 12.7749 59.8549 13.1473C59.8584 13.1893 59.8616 13.2314 59.8647 13.2736C59.9903 14.5692 60.0502 16.3597 59.9485 18.5132C59.8258 20.6636 59.5088 23.1769 58.7999 25.8222C58.426 27.1418 57.9684 28.5005 57.4001 29.8291C57.3336 29.9697 57.2675 30.1105 57.2014 30.2513C56.6428 31.4408 56.084 32.6309 55.3003 33.7251C54.5436 35.0087 53.5685 36.1364 52.5814 37.2101C51.9637 37.9957 51.1962 38.6101 50.4485 39.2088C50.1028 39.4856 49.7613 39.759 49.4407 40.0444C48.7354 40.6344 47.9662 41.0747 47.2248 41.4992C46.8657 41.7047 46.5131 41.9065 46.1775 42.1198C45.4762 42.5886 44.7384 42.8713 44.0372 43.14C43.7156 43.2632 43.4017 43.3835 43.1026 43.5175C42.8695 43.6082 42.6421 43.7011 42.4199 43.7918C41.7242 44.076 41.0788 44.3395 40.4645 44.4532C40.0108 44.5682 39.5885 44.6724 39.2032 44.7675C38.9152 44.8385 38.6479 44.9045 38.4036 44.9661L36.6179 45.3979L35.1672 39.5855L36.585 38.9947L38.1972 38.3288C38.6661 38.1765 39.1128 37.9025 39.5879 37.6113C39.7674 37.5011 39.9511 37.3886 40.1414 37.2791C40.3704 37.1261 40.6197 36.9883 40.8741 36.8477C41.3575 36.5806 41.8597 36.3031 42.2771 35.8905C42.5235 35.6616 42.7946 35.45 43.0689 35.2358C43.5171 34.8859 43.974 34.5292 44.3469 34.079C44.5589 33.8033 44.7991 33.5488 45.04 33.2935C45.4516 32.8575 45.8653 32.4191 46.1446 31.8686C46.1577 31.8485 46.1709 31.8285 46.184 31.8085C46.6837 31.0472 47.1818 30.2885 47.5148 29.4238C47.5258 29.395 47.5367 29.3662 47.5474 29.3373C47.8884 28.7014 48.1007 27.9936 48.3071 27.2978ZM18.2122 24.867L17.3098 27.9093C17.1236 28.5376 16.8776 29.3673 16.4731 30.1579C16.0601 31.223 15.4618 32.1333 14.9871 32.8555C14.9808 32.8651 14.9746 32.8746 14.9683 32.8841C14.6276 33.5186 14.1994 34.0117 13.8646 34.3755C13.7347 34.5165 13.625 34.6327 13.5289 34.7346C13.3216 34.9541 13.1774 35.1069 13.0303 35.2982L13.0082 35.3269L12.9851 35.3548C12.5466 35.8841 12.0567 36.2913 11.6716 36.5971C11.5492 36.6943 11.4413 36.7786 11.344 36.8546C11.1034 37.0425 10.9273 37.1801 10.7542 37.3392C10.2577 37.8231 9.72335 38.1537 9.31233 38.3894C9.12187 38.4987 8.9745 38.5798 8.85067 38.6479C8.64997 38.7583 8.51111 38.8347 8.35084 38.9418L8.29466 38.9794L8.23608 39.0131C8.08941 39.0974 7.9428 39.1866 7.77875 39.2871L7.73047 39.3167C7.58533 39.4058 7.42207 39.5059 7.25909 39.6012C6.91872 39.8003 6.48921 40.0334 5.99616 40.2032L4.62229 40.7706L5.17521 42.9859C5.39774 42.9303 5.61671 42.8763 5.84523 42.82C6.21131 42.7297 6.60191 42.6334 7.07092 42.5145L7.13429 42.4985L7.19857 42.4866C7.59669 42.4129 7.98115 42.2562 8.58809 42.0089C8.82827 41.911 9.10329 41.7989 9.42779 41.6721C9.76975 41.52 10.1793 41.3624 10.5245 41.2296C10.6899 41.166 10.8404 41.108 10.9617 41.0591C11.4312 40.8697 11.8165 40.6874 12.1606 40.4564L12.1815 40.4423L12.2028 40.4288C12.5751 40.1922 13.0059 39.9454 13.3897 39.7254C13.5687 39.6228 13.7374 39.5261 13.8853 39.439C14.3978 39.1372 14.8406 38.8514 15.2344 38.5248C15.5845 38.2149 16.0025 37.8798 16.3699 37.5852C16.5564 37.4357 16.7299 37.2966 16.8749 37.1765C17.3816 36.7569 17.7869 36.3801 18.1088 35.9719L18.1557 35.9124L18.207 35.8566C19.1783 34.8 20.0317 33.8011 20.6753 32.7094L20.7205 32.6328L20.7722 32.5605C21.443 31.624 21.9228 30.6041 22.4937 29.3907C22.5525 29.2655 22.6124 29.1383 22.6735 29.0089C23.1929 27.7898 23.6178 26.5311 23.9696 25.2909C24.6322 22.814 24.9323 20.4486 25.0491 18.4087C25.1462 16.3439 25.0871 14.6537 24.972 13.4666L24.9697 13.4432L24.968 13.4198C24.9484 13.1525 24.92 12.8857 24.8891 12.6348L24.6657 11.5887C24.2124 9.46519 23.1688 7.51443 21.6566 5.96184C20.1444 4.40929 18.2253 3.31832 16.1217 2.81438C14.0181 2.31045 11.8152 2.41396 9.76771 3.11302C7.72015 3.81209 5.91104 5.07839 4.55009 6.7662C3.1891 8.45406 2.33204 10.4944 2.07873 12.6512C1.82542 14.808 2.18631 16.9926 3.11932 18.9519C4.05231 20.9111 5.51905 22.5647 7.34915 23.722C9.1792 24.8791 11.2981 25.4929 13.4607 25.4927L13.4608 26.8193C13.4608 26.8193 13.4608 26.8194 13.4608 26.8193L13.4607 25.4927C13.9263 25.4927 14.3827 25.426 15.013 25.3339C15.0469 25.3289 15.0813 25.3239 15.1162 25.3188L18.2122 24.867ZM15.4051 27.2978C15.3574 27.3048 15.3098 27.3118 15.2622 27.3188C14.6721 27.4055 14.078 27.4927 13.4608 27.4927C13.3913 27.4928 13.3217 27.4922 13.2522 27.4911C10.7834 27.4529 8.37107 26.7344 6.28026 25.4124C4.1306 24.0531 2.40865 22.1113 1.3136 19.8117C0.218552 17.5122 -0.204845 14.9487 0.0923805 12.4179C0.38961 9.88711 1.39532 7.4924 2.99318 5.51079C4.59103 3.52919 6.71573 2.04166 9.1215 1.22029C11.5273 0.39892 14.1158 0.27727 16.5876 0.869414C19.0595 1.46155 21.3136 2.7433 23.0893 4.56636C24.758 6.27957 25.9401 8.40504 26.518 10.7229C26.5545 10.8695 26.5887 11.0168 26.6203 11.1649C26.6208 11.167 26.6212 11.169 26.6217 11.1711L26.6994 11.1531L26.7742 11.657C26.7933 11.7881 26.8148 11.9378 26.8367 12.1008C26.8788 12.4135 26.9223 12.7749 26.9528 13.1473C26.9563 13.1893 26.9596 13.2314 26.9627 13.2736C27.0883 14.5692 27.1481 16.3597 27.0464 18.5132C26.9238 20.6636 26.6067 23.1769 25.8978 25.8222C25.5239 27.1418 25.0663 28.5005 24.498 29.8291C24.4315 29.9697 24.3654 30.1105 24.2993 30.2513C23.7407 31.4408 23.1819 32.6309 22.3982 33.7251C21.6415 35.0087 20.6664 36.1364 19.6793 37.2101C19.0625 37.9925 18.2965 38.6056 17.5498 39.2032C17.203 39.4808 16.8603 39.7551 16.5387 40.0414C15.8333 40.6314 15.0642 41.0717 14.3227 41.4962C13.9636 41.7017 13.6111 41.9035 13.2754 42.1168C12.5797 42.5839 11.8467 42.8651 11.1506 43.1322C10.8231 43.2578 10.5039 43.3802 10.2005 43.5175C9.96742 43.6082 9.74008 43.701 9.51789 43.7918C8.82211 44.076 8.17678 44.3395 7.5624 44.4532C7.10876 44.5682 6.68647 44.6724 6.30114 44.7675C6.01319 44.8385 5.74587 44.9045 5.50154 44.9661L3.71585 45.3979L2.26517 39.5855L3.68295 38.9947L5.29515 38.3288C5.76398 38.1765 6.21077 37.9025 6.68579 37.6113C6.86537 37.5011 7.04899 37.3886 7.23936 37.2791C7.46835 37.1261 7.71761 36.9883 7.97205 36.8477C8.45547 36.5806 8.95761 36.3031 9.37501 35.8905C9.62147 35.6616 9.89252 35.45 10.1669 35.2358C10.615 34.8859 11.0719 34.5292 11.4448 34.079C11.6569 33.8033 11.897 33.5488 12.138 33.2935C12.5495 32.8575 12.9633 32.4191 13.2425 31.8686L13.2819 31.8085C13.7816 31.0473 14.2797 30.2885 14.6127 29.4238C14.6238 29.395 14.6346 29.3662 14.6453 29.3373C14.9863 28.7014 15.1987 27.9936 15.4051 27.2978Z" fill="#FD4C5C"/>
</svg>
