<svg width="42" height="42" viewBox="0 0 42 42" fill="none" xmlns="http://www.w3.org/2000/svg">
<path d="M15.7966 37.9576L19.8741 34.5276C20.4866 34.0026 21.5016 34.0026 22.1141 34.5276L26.1916 37.9576C27.1366 38.4301 28.2916 37.9576 28.6416 36.9426L29.4116 34.6151C29.6041 34.0551 29.4116 33.2326 28.9916 32.8126L25.0191 28.8226C24.7216 28.5426 24.4941 27.9826 24.4941 27.5801V22.5926C24.4941 21.8576 25.0366 21.5076 25.7191 21.7876L34.3116 25.4976C35.6591 26.0751 36.7616 25.3576 36.7616 23.8876V21.6301C36.7616 20.4576 35.8866 19.1101 34.8016 18.6551L25.0191 14.4376C24.7391 14.3151 24.4941 13.9476 24.4941 13.6326V8.38258C24.4941 6.73758 23.2866 4.79508 21.8166 4.04258C21.2916 3.78008 20.6791 3.78008 20.1541 4.04258C18.6841 4.79508 17.4766 6.75508 17.4766 8.40008V13.6501C17.4766 13.9651 17.2316 14.3326 16.9516 14.4551L7.18656 18.6726C6.10156 19.1101 5.22656 20.4576 5.22656 21.6301V23.8876C5.22656 25.3576 6.32906 26.0751 7.67656 25.4976L16.2691 21.7876C16.9341 21.4901 17.4941 21.8576 17.4941 22.5926V27.5801C17.4941 27.9826 17.2666 28.5426 16.9866 28.8226L13.0141 32.8126C12.5941 33.2326 12.4016 34.0376 12.5941 34.6151L13.3641 36.9426C13.6791 37.9576 14.8341 38.4476 15.7966 37.9576Z" stroke="#00BB98" stroke-width="3" stroke-linecap="round" stroke-linejoin="round"/>
</svg>
